<?xml version="1.0" encoding="utf-8"?>
<!-- Svg Vector Icons : http://www.onlinewebfonts.com/icon -->
<!DOCTYPE svg PUBLIC "-//W3C//DTD SVG 1.1//EN" "http://www.w3.org/Graphics/SVG/1.1/DTD/svg11.dtd">
<svg version="1.1" xmlns="http://www.w3.org/2000/svg" xmlns:xlink="http://www.w3.org/1999/xlink" x="0px" y="0px" viewBox="0 0 256 256" enable-background="new 0 0 256 256" xml:space="preserve">
<metadata> Svg Vector Icons : http://www.onlinewebfonts.com/icon </metadata>
<g><g><g><path fill="#000000" d="M18,30.1c-3.4,1.7-5.2,3.5-6.8,7.1L10,39.7v71.6V183l1.2,2.5c1.7,3.6,3.4,5.5,6.8,7.1l3,1.5h33.3h33.3l1-3.5l1-3.5l-20.3-0.1L49.1,187l-1.3-4.3c-2.5-7.6-6.7-14-12.6-18.8c-3.7-3-10.9-6.6-15-7.5l-3-0.7v-44.5V66.6l3.3-0.9c13.1-3.4,23.4-13.3,27.5-26.5l1.1-3.5h79.4h79.4l1.5,4.5c2.1,6.2,4.9,10.7,9.6,15.4c4.7,4.7,9.3,7.5,15.5,9.6l4.4,1.5v44.4v44.4l-4.4,1.5c-4.9,1.6-7.6,3.1-11.7,6.2c-6.6,5-11.7,12.6-13.9,20.8l-0.8,3l-22,0.1c-17.2,0.1-21.9,0.2-21.7,0.7c0.1,0.3,0.6,1.9,1.1,3.4l0.9,2.9h34.3h34.3l3-1.5c3.4-1.7,5.2-3.5,6.8-7.1l1.2-2.5v-71.6V39.7l-1.2-2.5c-1.7-3.6-3.4-5.5-6.8-7.1l-3-1.5H128H21.1L18,30.1z"/><path fill="#000000" d="M65.5,62.8v3.5h62.7H191v-3.5v-3.5h-62.7H65.5V62.8z"/><path fill="#000000" d="M65.5,85.1v3.5h62.7H191v-3.5v-3.5h-62.7H65.5V85.1z"/><path fill="#000000" d="M119.2,104.5c-2.1,3.8-2.6,4.4-3.9,4.7c-0.7,0.2-2,0.1-2.8-0.2c-4.8-2-4.4-1.9-5.4-0.6c-0.5,0.6-0.9,1.9-0.9,2.9c0,3.7-1.6,5.1-5.8,5c-3.7-0.1-4.3,0.4-3.8,3.3c0.9,5.3,0.1,6.7-4.1,7.9c-3.7,1-4,2.5-1.1,6.1c1.8,2.3,0.9,5-2.3,7c-2.5,1.5-2.4,3.5,0.2,5.4c3.4,2.3,3.8,4.3,1.5,7.6c-0.8,1.2-1.5,2.6-1.5,3c0,0.9,1.8,2.4,2.9,2.4c1.4,0,4,1.6,4.5,2.8c0.4,1,0.4,2-0.1,4.2c-0.8,4-0.3,4.5,3.9,4.4c3-0.1,3.3-0.1,4.4,1.2c0.8,1,1.2,2,1.2,3.4c0,1.1,0.2,2.4,0.5,3c0.6,1.1,2.7,1.2,4.5,0.2c0.7-0.4,2-0.7,3.1-0.7c2,0,3.6,1.5,4.8,4.4c1.1,2.6,3,2.5,5.7-0.3c2-2.1,4.6-2.1,6.6,0c2.7,2.9,5,2.9,6-0.1c1.2-3.6,4.4-4.9,7.5-3.1c1.8,1,3.8,0.9,4.5-0.2c0.2-0.5,0.5-1.8,0.5-2.8c0-3.6,2.1-5.3,6.1-4.9c3.2,0.4,4-0.3,3.6-3.3c-0.6-3.8-0.4-5,0.7-6.2c0.6-0.6,1.8-1.3,2.7-1.5c2.1-0.4,3.8-1.6,3.8-2.6c0-0.4-0.7-1.8-1.5-3c-2.1-3.2-2-4.2,1.2-7.2c1.5-1.4,2.7-2.9,2.7-3.2c0-0.3-0.6-1-1.3-1.6c-4.8-3.9-5.2-5.3-2.6-8.7c2.2-3,1.8-4.3-1.7-5.3c-4.3-1.2-4.9-2.4-4-8c0.4-3.1,0.1-3.4-4-3.3c-2.9,0.1-3.1,0.1-4.4-1.4c-0.9-1.1-1.3-2.1-1.3-3.5c0-1.1-0.4-2.3-0.9-3c-1-1.3-0.6-1.3-5.5,0.6c-2.3,0.9-4,0.1-5.7-3.1c-2-3.6-3-3.7-6-1c-2.9,2.7-4.5,2.7-7.4,0.1C121.7,102.5,120.3,102.4,119.2,104.5z M136.2,118.4c6.1,1.9,11.8,6.7,15,12.7c6.8,12.8,1.5,29.2-11.5,35.5c-4.9,2.4-8,3-13.2,2.7c-9.6-0.6-17.6-5.8-21.8-14.4c-6-11.9-2.3-26.1,8.7-33.4C120.3,117,128.1,115.9,136.2,118.4z"/><path fill="#000000" d="M124.6,128.5c-1.7,3.4-3.2,6.2-3.4,6.2c-0.2,0-3.2,0.4-6.6,1c-3.4,0.5-6.4,1-6.7,1c-0.2,0,1.8,2.3,4.7,5.2l5.1,5.2l-1.2,7l-1.2,7l6.4-3.3l6.4-3.3l6.4,3.4c5,2.6,6.4,3.1,6.1,2.4c-0.1-0.5-0.7-3.7-1.3-7.1l-1-6.2l5.1-5.1l5.1-5.1l-1.7-0.2c-0.9-0.2-4-0.6-6.8-1c-2.8-0.4-5.3-0.8-5.5-0.9c-0.1-0.1-1.6-2.9-3.3-6.2c-1.6-3.3-3.1-6-3.2-6S126.4,125,124.6,128.5z"/><path fill="#000000" d="M101.6,175.3c-0.4,1.1-14.2,44.8-14.2,45.2c0,0.2,3.3-1.4,7.2-3.4c5.8-3,7.3-3.6,7.7-3.1c0.2,0.4,2,3.7,4,7.3c2.2,4,3.7,6.3,3.9,6c0.4-0.8,12.3-38.5,12.3-39.1c0-0.3-0.7-0.5-1.6-0.5c-2.4,0-4.6-1.6-5.8-4.2l-1.1-2.3l-1.9,1c-4.7,2.4-9.2-0.1-9.9-5.5C102,175.5,101.8,174.9,101.6,175.3z"/><path fill="#000000" d="M152.7,180.3c-0.9,1.5-3.5,2.9-5.5,2.9c-0.6,0-2.1-0.4-3.2-0.9l-2.1-1l-1.1,2.3c-0.6,1.2-1.8,2.6-2.6,3.2c-1.7,1-4.8,1.2-6.3,0.4c-0.5-0.3-0.9-0.4-0.9-0.2c0,0.2,12.1,38.9,12.7,40.4c0.1,0.4,1.7-1.5,4.3-5.5c2.2-3.4,4-6.2,4.1-6.3c0.1-0.1,3.3,1.1,7.2,2.5c4,1.5,7.2,2.6,7.3,2.5c0-0.1-2.8-9.4-6.3-20.6c-3.6-11.3-6.5-20.7-6.6-20.9C153.6,179,153.1,179.5,152.7,180.3z"/></g></g></g>
</svg>